<svg width="60" height="60" viewBox="0 0 60 60" fill="none" xmlns="http://www.w3.org/2000/svg">
<path d="M30.4991 23.0014C32.5671 23.0014 34.2489 21.3196 34.2489 19.2515C34.2489 17.1835 32.5671 15.5017 30.4991 15.5017C28.431 15.5017 26.7492 17.1835 26.7492 19.2515C26.7492 21.3196 28.431 23.0014 30.4991 23.0014ZM30.4991 17.3766C31.534 17.3766 32.374 18.2166 32.374 19.2515C32.374 20.2865 31.534 21.1265 30.4991 21.1265C29.4641 21.1265 28.6241 20.2865 28.6241 19.2515C28.6241 18.2166 29.4641 17.3766 30.4991 17.3766ZM45.4984 43.6255C48.084 43.6255 50.1857 41.5237 50.1857 38.9382C50.1857 36.3527 48.084 34.2509 45.4984 34.2509C42.9129 34.2509 40.8111 36.3527 40.8111 38.9382C40.8111 41.5237 42.9129 43.6255 45.4984 43.6255ZM45.4984 36.1258C47.049 36.1258 48.3108 37.3876 48.3108 38.9382C48.3108 40.4888 47.049 41.7506 45.4984 41.7506C43.9479 41.7506 42.6861 40.4888 42.6861 38.9382C42.6861 37.3876 43.9479 36.1258 45.4984 36.1258ZM10.8124 38.9382C10.8124 41.5237 12.9142 43.6255 15.4997 43.6255C18.0852 43.6255 20.187 41.5237 20.187 38.9382C20.187 36.3527 18.0852 34.2509 15.4997 34.2509C12.9142 34.2509 10.8124 36.3527 10.8124 38.9382ZM18.3121 38.9382C18.3121 40.4888 17.0502 41.7506 15.4997 41.7506C13.9491 41.7506 12.6873 40.4888 12.6873 38.9382C12.6873 37.3876 13.9491 36.1258 15.4997 36.1258C17.0502 36.1258 18.3121 37.3876 18.3121 38.9382ZM52.9156 51.9202C52.9944 52.432 52.5706 52.9214 52.0607 53.0001C51.6069 53.0001 51.1345 52.6683 51.0632 52.2052C50.6413 49.4509 48.0483 47.3754 45.0297 47.3754C42.0111 47.3754 39.4181 49.4509 38.9962 52.2052C38.9268 52.6626 38.4487 52.9889 37.9988 53.0001C37.5488 53.0001 37.0744 52.6739 36.9994 52.2145C36.5476 49.4546 33.7539 47.3754 30.4991 47.3754C27.2442 47.3754 24.4506 49.4546 23.9987 52.2145C23.9237 52.6701 23.4362 52.9964 22.9994 53.0001C22.5456 53.0001 22.0732 52.6683 22.0019 52.2052C21.5801 49.4509 18.987 47.3754 15.9684 47.3754C12.9498 47.3754 10.3568 49.4509 9.93492 52.2052C9.85617 52.717 9.38744 53.0657 8.86621 52.9889C8.35624 52.9101 8.00375 52.432 8.0825 51.9202C8.6431 48.2603 12.033 45.5004 15.9684 45.5004C18.9927 45.5004 21.6832 47.1391 23.0256 49.5559C24.4487 47.1391 27.2967 45.5004 30.4991 45.5004C33.7014 45.5004 36.5494 47.1391 37.9725 49.5559C39.3149 47.1391 42.0055 45.5004 45.0297 45.5004C48.9652 45.5004 52.355 48.2603 52.9156 51.9202ZM52.9981 25.8138V31.4385C52.9981 31.956 52.5781 32.376 52.0607 32.376C51.5432 32.376 51.1232 31.956 51.1232 31.4385V25.8138C51.1232 23.2282 49.0214 21.1265 46.4359 21.1265H44.561C44.0435 21.1265 43.6235 20.7065 43.6235 20.189C43.6235 19.6715 44.0435 19.2515 44.561 19.2515H46.4359C50.0545 19.2515 52.9981 22.1952 52.9981 25.8138ZM20.5039 22.8195C20.3145 23.5488 20.4214 24.3044 20.8001 24.9513C21.1807 25.6 21.7901 26.0612 22.5175 26.2487C23.2469 26.4437 24.0025 26.3331 24.6531 25.9506L25.0712 25.705C25.8343 26.3425 26.723 26.8412 27.6886 27.1787V27.6868C27.6886 29.2374 28.9504 30.4992 30.5009 30.4992C32.0515 30.4992 33.3133 29.2374 33.3133 27.6868V27.1787C34.2789 26.8412 35.1657 26.3425 35.9307 25.705L36.3488 25.9506C36.9994 26.3331 37.755 26.4437 38.4844 26.2487C39.2118 26.0594 39.8212 25.5981 40.1999 24.9532C40.5805 24.3044 40.6874 23.5488 40.498 22.8195C40.3087 22.092 39.8474 21.4827 39.2006 21.1002L38.7656 20.8433C38.8837 20.2827 38.9418 19.7653 38.9418 19.2497C38.9418 18.734 38.8856 18.2166 38.7637 17.6541L39.2006 17.3972C39.8493 17.0166 40.3105 16.4073 40.498 15.6798C40.6874 14.9505 40.5805 14.1949 40.2018 13.548C39.8212 12.8993 39.2118 12.4381 38.4844 12.2506C37.755 12.0575 36.9994 12.1662 36.3488 12.5487L35.9307 12.7943C35.1676 12.1568 34.2789 11.6581 33.3133 11.3206V10.8125C33.3133 9.26194 32.0515 8.00012 30.5009 8.00012C28.9504 8.00012 27.6886 9.26194 27.6886 10.8125V11.3206C26.723 11.6581 25.8361 12.1568 25.0712 12.7943L24.6531 12.5487C24.0025 12.1662 23.2469 12.0575 22.5175 12.2506C21.7901 12.4399 21.1807 12.9012 20.802 13.5461C20.4214 14.1949 20.3145 14.9505 20.5039 15.6798C20.6932 16.4073 21.1545 17.0166 21.7994 17.3954L22.2382 17.6541C22.1182 18.2166 22.06 18.734 22.06 19.2497C22.06 19.7653 22.1163 20.2827 22.2363 20.8433L21.7994 21.1021C21.1526 21.4827 20.6913 22.092 20.5039 22.8195ZM24.2181 21.0421C24.025 20.3652 23.9368 19.7953 23.9368 19.2515C23.9368 18.7078 24.0268 18.1378 24.2181 17.461C24.3343 17.0504 24.1618 16.6135 23.7925 16.3979L22.7481 15.7829C22.5325 15.6573 22.3788 15.4529 22.3169 15.2111C22.255 14.9692 22.2888 14.7161 22.4181 14.5005C22.5438 14.2849 22.7463 14.1311 22.99 14.0692C23.2337 14.0055 23.485 14.0411 23.7006 14.1686L24.7131 14.7648C25.0824 14.9823 25.553 14.9242 25.8511 14.6205C26.6592 13.8105 27.6961 13.2274 28.8585 12.9274C29.2729 12.8187 29.5616 12.4456 29.5616 12.02V10.8163C29.5616 10.3007 29.9835 9.87879 30.4991 9.87879C31.0147 9.87879 31.4365 10.3007 31.4365 10.8163V12.02C31.4365 12.4474 31.7253 12.8205 32.1396 12.9274C33.3002 13.2274 34.3389 13.8124 35.147 14.6205C35.447 14.9223 35.9157 14.9805 36.2851 14.7648L37.2975 14.1686C37.5113 14.043 37.7644 14.0074 38.0081 14.0692C38.2519 14.1311 38.4525 14.2849 38.5819 14.5024C38.7075 14.7161 38.7431 14.9692 38.6812 15.2111C38.6194 15.4529 38.4656 15.6554 38.2481 15.7848L37.2057 16.3979C36.8382 16.6135 36.6638 17.0522 36.7801 17.461C36.9732 18.1378 37.0613 18.7078 37.0613 19.2515C37.0613 19.7953 36.9713 20.3652 36.7801 21.0421C36.6638 21.4527 36.8382 21.8895 37.2075 22.107L38.2481 22.7164C38.4656 22.8439 38.6194 23.0482 38.6812 23.292C38.7431 23.5339 38.7093 23.787 38.58 24.0026C38.4544 24.2182 38.2519 24.3719 38.0081 24.4338C37.7606 24.4957 37.5131 24.4619 37.2975 24.3344L36.2851 23.7382C35.9176 23.5226 35.4489 23.5807 35.147 23.8826C34.3389 24.6926 33.3021 25.2757 32.1396 25.5756C31.7253 25.6844 31.4365 26.0575 31.4365 26.4831V27.6868C31.4365 28.2024 31.0147 28.6243 30.4991 28.6243C29.9835 28.6243 29.5616 28.2024 29.5616 27.6868V26.4831C29.5616 26.0556 29.2729 25.6825 28.8585 25.5756C27.6979 25.2757 26.6592 24.6907 25.8511 23.8826C25.6711 23.7007 25.4293 23.6088 25.1874 23.6088C25.0243 23.6088 24.8593 23.6501 24.7112 23.7382L23.6987 24.3344C23.4869 24.4601 23.2356 24.4976 22.9881 24.4338C22.7444 24.3719 22.5438 24.2182 22.4144 24.0007C22.2888 23.787 22.2532 23.5339 22.315 23.292C22.3769 23.0482 22.5306 22.8458 22.7463 22.7183L23.7887 22.107C24.1562 21.8895 24.3343 21.4508 24.2181 21.0421ZM8 31.4385V25.8138C8 22.1952 10.9436 19.2515 14.5622 19.2515H16.4371C16.9546 19.2515 17.3746 19.6715 17.3746 20.189C17.3746 20.7065 16.9546 21.1265 16.4371 21.1265H14.5622C11.9767 21.1265 9.87492 23.2282 9.87492 25.8138V31.4385C9.87492 31.956 9.45494 32.376 8.93746 32.376C8.41998 32.376 8 31.956 8 31.4385ZM25.8118 38.9382C25.8118 41.5237 27.9135 43.6255 30.4991 43.6255C33.0846 43.6255 35.1864 41.5237 35.1864 38.9382C35.1864 36.3527 33.0846 34.2509 30.4991 34.2509C27.9135 34.2509 25.8118 36.3527 25.8118 38.9382ZM33.3114 38.9382C33.3114 40.4888 32.0496 41.7506 30.4991 41.7506C28.9485 41.7506 27.6867 40.4888 27.6867 38.9382C27.6867 37.3876 28.9485 36.1258 30.4991 36.1258C32.0496 36.1258 33.3114 37.3876 33.3114 38.9382Z" fill="white" stroke="white"/>
</svg>
