<svg width="50" height="50" viewBox="0 0 50 50" fill="none" xmlns="http://www.w3.org/2000/svg">
<g clip-path="url(#clip0_24_103)">
<path d="M18.75 50H2.08333C1.5308 50 1.0009 49.7805 0.610194 49.3898C0.219493 48.9991 0 48.4692 0 47.9167C0 47.3642 0.219493 46.8343 0.610194 46.4436C1.0009 46.0529 1.5308 45.8334 2.08333 45.8334H18.75C19.3025 45.8334 19.8324 46.0529 20.2231 46.4436C20.6138 46.8343 20.8333 47.3642 20.8333 47.9167C20.8333 48.4692 20.6138 48.9991 20.2231 49.3898C19.8324 49.7805 19.3025 50 18.75 50Z" fill="white"/>
<path d="M14.5833 41.6667H2.08333C1.5308 41.6667 1.0009 41.4472 0.610194 41.0565C0.219493 40.6658 0 40.1359 0 39.5833C0 39.0308 0.219493 38.5009 0.610194 38.1102C1.0009 37.7195 1.5308 37.5 2.08333 37.5H14.5833C15.1359 37.5 15.6658 37.7195 16.0565 38.1102C16.4472 38.5009 16.6667 39.0308 16.6667 39.5833C16.6667 40.1359 16.4472 40.6658 16.0565 41.0565C15.6658 41.4472 15.1359 41.6667 14.5833 41.6667Z" fill="white"/>
<path d="M10.4167 33.3333H2.08333C1.5308 33.3333 1.0009 33.1138 0.610194 32.7231C0.219493 32.3324 0 31.8025 0 31.25C0 30.6974 0.219493 30.1675 0.610194 29.7768C1.0009 29.3861 1.5308 29.1666 2.08333 29.1666H10.4167C10.9692 29.1666 11.4991 29.3861 11.8898 29.7768C12.2805 30.1675 12.5 30.6974 12.5 31.25C12.5 31.8025 12.2805 32.3324 11.8898 32.7231C11.4991 33.1138 10.9692 33.3333 10.4167 33.3333Z" fill="white"/>
<path d="M27.0833 49.9063C26.5308 49.9309 25.9911 49.735 25.583 49.3617C25.175 48.9883 24.9319 48.4682 24.9073 47.9157C24.8827 47.3631 25.0786 46.8235 25.4519 46.4154C25.8253 46.0073 26.3454 45.7642 26.8979 45.7396C30.8405 45.3789 34.5988 43.9022 37.7324 41.4825C40.866 39.0628 43.2453 35.8004 44.5915 32.0772C45.9378 28.354 46.1953 24.3243 45.3339 20.4601C44.4724 16.5958 42.5278 13.057 39.7276 10.2582C36.9275 7.45933 33.3878 5.51629 29.5232 4.65666C25.6585 3.79702 21.629 4.05638 17.9064 5.40435C14.1839 6.75232 10.9225 9.13309 8.50422 12.2678C6.08598 15.4025 4.61102 19.1614 4.25209 23.1042C4.20236 23.6545 3.93605 24.1626 3.51175 24.5165C3.08745 24.8705 2.53991 25.0414 1.98959 24.9917C1.43926 24.942 0.931234 24.6757 0.577259 24.2514C0.223284 23.8271 0.0523598 23.2795 0.102088 22.7292C0.683106 16.3194 3.71376 10.3807 8.56319 6.14915C13.4126 1.91762 19.7072 -0.280643 26.1366 0.011956C32.566 0.304555 38.6348 3.06547 43.0799 7.71999C47.5249 12.3745 50.0036 18.564 50 25.0001C50.0319 31.2466 47.7113 37.2763 43.4998 41.8897C39.2883 46.5031 33.4944 49.3621 27.2708 49.898C27.2083 49.9042 27.1438 49.9063 27.0833 49.9063Z" fill="white"/>
<path d="M25.0003 12.5C24.4478 12.5 23.9179 12.7195 23.5272 13.1102C23.1365 13.5009 22.917 14.0308 22.917 14.5833V25C22.9171 25.5525 23.1367 26.0823 23.5274 26.4729L29.7774 32.7229C30.1703 33.1024 30.6966 33.3124 31.2428 33.3077C31.7891 33.3029 32.3116 33.0838 32.6979 32.6975C33.0841 32.3113 33.3032 31.7887 33.308 31.2425C33.3127 30.6963 33.1027 30.17 32.7232 29.7771L27.0837 24.1375V14.5833C27.0837 14.0308 26.8642 13.5009 26.4735 13.1102C26.0828 12.7195 25.5529 12.5 25.0003 12.5Z" fill="white"/>
</g>
<defs>
<clipPath id="clip0_24_103">
<rect width="50" height="50" fill="white"/>
</clipPath>
</defs>
</svg>
