<svg width="60" height="60" viewBox="0 0 60 60" fill="none" xmlns="http://www.w3.org/2000/svg">
<path d="M55 44.375C55 43.34 54.16 42.5 53.125 42.5H29.375C28.34 42.5 27.5 43.34 27.5 44.375C27.5 45.41 28.34 46.25 29.375 46.25H53.125C54.16 46.25 55 45.41 55 44.375ZM5.6275 40.9325L11.0575 45.7725C11.4175 46.0925 11.8675 46.25 12.3125 46.25C12.8225 46.25 13.3325 46.045 13.705 45.64L22.8975 35.59C23.225 35.2275 23.39 34.775 23.39 34.325C23.39 33.2925 22.555 32.4475 21.5075 32.4475C20.995 32.4475 20.4875 32.6525 20.1125 33.0575L12.1775 41.7325L8.1375 38.1325C7.7775 37.8125 7.33 37.655 6.8825 37.655C5.8375 37.655 5 38.5 5 39.5325C5 40.0475 5.21 40.5625 5.6275 40.9325ZM45 34.375C45 33.34 44.16 32.5 43.125 32.5H29.375C28.34 32.5 27.5 33.34 27.5 34.375C27.5 35.41 28.34 36.25 29.375 36.25H43.125C44.16 36.25 45 35.41 45 34.375ZM5.6275 20.985L11.0575 25.825C11.4175 26.145 11.8675 26.3025 12.3125 26.3025C12.8225 26.3025 13.3325 26.0975 13.705 25.6925L22.8975 15.6425C23.225 15.2825 23.39 14.8275 23.39 14.3775C23.39 13.3475 22.555 12.5 21.5075 12.5C20.995 12.5 20.4875 12.705 20.1125 13.11L12.1775 21.7875L8.1375 18.1875C7.7775 17.8675 7.33 17.7075 6.8825 17.7075C5.8375 17.7075 5 18.5525 5 19.5875C5 20.1025 5.21 20.615 5.6275 20.985ZM50 24.375C50 23.34 49.16 22.5 48.125 22.5H29.375C28.34 22.5 27.5 23.34 27.5 24.375C27.5 25.41 28.34 26.25 29.375 26.25H48.125C49.16 26.25 50 25.41 50 24.375ZM55 14.375C55 13.34 54.16 12.5 53.125 12.5H29.375C28.34 12.5 27.5 13.34 27.5 14.375C27.5 15.41 28.34 16.25 29.375 16.25H53.125C54.16 16.25 55 15.41 55 14.375Z" fill="white"/>
</svg>
