<svg width="50" height="50" viewBox="0 0 50 50" fill="none" xmlns="http://www.w3.org/2000/svg">
<g clip-path="url(#clip0_24_96)">
<path d="M46.875 8.28333H40.4458C40.0338 8.28341 39.6311 8.40565 39.2886 8.63457C38.9461 8.8635 38.6791 9.18884 38.5215 9.56946C38.3638 9.95009 38.3226 10.3689 38.4029 10.773C38.4833 11.177 38.6816 11.5482 38.9729 11.8396L41.2354 14.1021L33.7645 21.5708C33.3676 21.9502 32.8397 22.1619 32.2906 22.1619C31.7415 22.1619 31.2136 21.9502 30.8166 21.5708L30.4625 21.2146C29.2721 20.0772 27.6891 19.4425 26.0427 19.4425C24.3963 19.4425 22.8133 20.0772 21.6229 21.2146L10.9979 31.8396C10.6064 32.2322 10.3869 32.7642 10.3877 33.3186C10.3885 33.873 10.6095 34.4044 11.002 34.7958C11.3946 35.1873 11.9266 35.4068 12.481 35.406C13.0354 35.4052 13.5668 35.1842 13.9583 34.7917L24.5833 24.1667C24.98 23.7868 25.508 23.5748 26.0572 23.5748C26.6065 23.5748 27.1345 23.7868 27.5312 24.1667L27.8854 24.5229C29.0762 25.6593 30.6591 26.2933 32.3052 26.2933C33.9513 26.2933 35.5341 25.6593 36.725 24.5229L44.1958 17.0521L46.4583 19.3146C46.7506 19.6011 47.1209 19.7952 47.5229 19.8726C47.9249 19.95 48.3408 19.9072 48.7186 19.7496C49.0964 19.592 49.4194 19.3266 49.6473 18.9866C49.8752 18.6465 49.9979 18.2469 50 17.8375V11.4083C50 10.5795 49.6707 9.78467 49.0847 9.19862C48.4986 8.61257 47.7038 8.28333 46.875 8.28333Z" fill="white"/>
<path d="M47.9167 45.7833H10.4167C8.75906 45.7833 7.16935 45.1249 5.99725 43.9528C4.82515 42.7806 4.16667 41.1909 4.16667 39.5333V2.08333C4.16667 1.5308 3.94717 1.0009 3.55647 0.610194C3.16577 0.219493 2.63587 0 2.08333 0C1.5308 0 1.0009 0.219493 0.610194 0.610194C0.219493 1.0009 0 1.5308 0 2.08333L0 39.5333C0.00330804 42.295 1.10184 44.9426 3.05462 46.8954C5.00741 48.8482 7.65501 49.9467 10.4167 49.95H47.9167C48.4692 49.95 48.9991 49.7305 49.3898 49.3398C49.7805 48.9491 50 48.4192 50 47.8667C50 47.3141 49.7805 46.7842 49.3898 46.3935C48.9991 46.0028 48.4692 45.7833 47.9167 45.7833Z" fill="white"/>
</g>
<defs>
<clipPath id="clip0_24_96">
<rect width="50" height="50" fill="white"/>
</clipPath>
</defs>
</svg>
