<svg width="60" height="60" viewBox="0 0 60 60" fill="none" xmlns="http://www.w3.org/2000/svg">
<g clip-path="url(#clip0_24_63)">
<path d="M26.875 19.5833C26.875 17.8583 28.275 16.4583 30 16.4583C31.725 16.4583 33.125 17.8583 33.125 19.5833C33.125 21.3083 31.725 22.7083 30 22.7083C28.275 22.7083 26.875 21.3083 26.875 19.5833ZM18.1292 24.0167L19.2083 23.3958C18.7854 22.2021 18.5417 20.9208 18.5417 19.5833C18.5417 18.2458 18.7833 16.9646 19.2083 15.7708L18.1292 15.15C17.1312 14.575 16.7896 13.3021 17.3625 12.3042C17.9396 11.3062 19.2125 10.9667 20.2083 11.5375L21.2875 12.1604C22.9604 10.2 25.2812 8.81042 27.9167 8.325V7.08333C27.9167 5.93333 28.85 5 30 5C31.15 5 32.0833 5.93333 32.0833 7.08333V8.325C34.725 8.8125 37.05 10.2062 38.725 12.175L39.8292 11.5396C40.825 10.9687 42.1 11.3083 42.675 12.3062C43.2479 13.3042 42.9062 14.5771 41.9083 15.1521L40.7979 15.7917C41.2167 16.9812 41.4583 18.2542 41.4583 19.5854C41.4583 20.9167 41.2188 22.1896 40.7979 23.3792L41.9083 24.0187C42.9062 24.5937 43.2479 25.8667 42.675 26.8646C42.2896 27.5333 41.5896 27.9083 40.8667 27.9083C40.5146 27.9083 40.1562 27.8187 39.8292 27.6312L38.725 26.9958C37.0542 28.9583 34.7396 30.35 32.1062 30.8417L32.1208 32.0604C32.1333 33.2104 31.2125 34.1542 30.0625 34.1687H30.0354C28.8979 34.1687 27.9667 33.2521 27.9521 32.1104L27.9375 30.8479C25.2937 30.3646 22.9646 28.975 21.2854 27.0083L20.2062 27.6312C19.8792 27.8187 19.5208 27.9083 19.1687 27.9083C18.4479 27.9083 17.7479 27.5333 17.3604 26.8646C16.7875 25.8667 17.1292 24.5937 18.1271 24.0187L18.1292 24.0167ZM22.7083 19.5833C22.7083 23.6042 25.9792 26.875 30 26.875C34.0208 26.875 37.2917 23.6042 37.2917 19.5833C37.2917 15.5625 34.0208 12.2917 30 12.2917C25.9792 12.2917 22.7083 15.5625 22.7083 19.5833ZM55 46.6667C55 51.2625 51.2625 55 46.6667 55H13.3333C8.7375 55 5 51.2625 5 46.6667C5 42.0708 8.7375 38.3333 13.3333 38.3333H46.6667C51.2625 38.3333 55 42.0708 55 46.6667ZM13.3333 50.8333H34.1667V42.5H13.3333C11.0354 42.5 9.16667 44.3687 9.16667 46.6667C9.16667 48.9646 11.0354 50.8333 13.3333 50.8333ZM50.8333 46.6667C50.8333 44.3687 48.9646 42.5 46.6667 42.5H38.3333V50.8333H46.6667C48.9646 50.8333 50.8333 48.9646 50.8333 46.6667Z" fill="white"/>
</g>
<defs>
<clipPath id="clip0_24_63">
<rect width="50" height="50" fill="white" transform="translate(5 5)"/>
</clipPath>
</defs>
</svg>
