<svg width="200" height="47" viewBox="0 0 200 47" fill="none" xmlns="http://www.w3.org/2000/svg">
<mask id="mask0_39_764" style="mask-type:luminance" maskUnits="userSpaceOnUse" x="15" y="4" width="170" height="39">
<path d="M185 4H15V42.6363H185V4Z" fill="white"/>
</mask>
<g mask="url(#mask0_39_764)">
<path d="M32.0794 42.6363C23.0574 42.6363 17.3264 38.9408 15 31.6055H22.5467C24.1923 34.5731 27.3698 36.085 32.0794 36.085C34.4626 36.085 36.3918 35.637 37.8104 34.7971C39.2858 33.9012 40.0233 32.7253 40.0233 31.2694C40.0233 29.9255 39.5127 28.9177 38.5481 28.1897C37.5266 27.4618 35.9378 27.0138 33.725 26.7898L27.2563 26.174C23.3979 25.8379 20.6175 24.7181 18.8017 22.8702C16.986 20.9664 16.0781 18.5586 16.0781 15.6469C16.0781 12.1752 17.4399 9.37549 20.1636 7.1917C22.8872 5.0639 26.5187 4 31.0581 4C35.4273 4 39.0588 5.0639 41.8958 7.1917C44.733 9.3195 46.6621 11.9512 47.6836 15.031H40.1369C39.5127 13.6871 38.3211 12.6232 36.6188 11.7833C34.9166 10.9433 33.0441 10.5514 30.9446 10.5514C28.5614 10.5514 26.7457 10.9993 25.4406 11.9512C24.1355 12.9032 23.5114 14.0231 23.5114 15.4229C23.5114 17.8307 25.3271 19.2866 28.9019 19.6785L35.8245 20.3505C39.4559 20.7424 42.2931 21.8623 44.3358 23.7661C46.3786 25.6699 47.4566 28.0778 47.4566 30.9895C47.4566 34.2372 46.0948 36.9809 43.428 39.2766C40.7044 41.5165 36.9025 42.6363 32.0794 42.6363Z" fill="#252525"/>
<path d="M59.6561 4V42.6363H52.2228V4H59.6561Z" fill="#252525"/>
<path d="M95.8576 15.4229C95.8576 18.7266 94.7228 21.4704 92.5099 23.6542C90.2968 25.8379 87.0625 26.9019 82.8069 26.9019H71.6287V42.6363H64.1953V4H82.8069C87.0625 4 90.3536 5.0639 92.5099 7.24769C94.7228 9.43148 95.8576 12.1192 95.8576 15.4229ZM71.6287 10.5514V20.3505H82.2962C84.1687 20.3505 85.7007 19.9025 86.7789 19.0066C87.857 18.1107 88.4243 16.9348 88.4243 15.4229C88.4243 13.9111 87.9137 12.7352 86.7789 11.8393C85.7007 10.9433 84.2255 10.4954 82.2962 10.4954H71.6287V10.5514Z" fill="#252525"/>
<path d="M100.397 26.342V4H107.831V26.2859C107.831 29.4776 108.625 31.8854 110.271 33.5652C111.859 35.2451 114.129 36.085 116.853 36.085C116.909 36.085 117.647 36.085 117.704 36.085C120.711 36.085 122.697 35.2451 124.286 33.5652C125.875 31.8854 126.669 29.4776 126.669 26.2859V4H134.102V26.342C134.102 31.4933 132.627 35.469 129.62 38.3807C126.669 41.2365 122.811 42.6363 117.704 42.6363C117.647 42.6363 116.909 42.6363 116.853 42.6363C111.859 42.6363 107.887 41.1804 104.88 38.3807C101.873 35.5251 100.397 31.4933 100.397 26.342Z" fill="#252525"/>
<path d="M165.594 4H173.028L172.801 42.6363H164.743L146.018 15.0869V42.6363H138.585V4H146.642L165.367 31.5494L165.594 4Z" fill="#252525"/>
<path d="M185 4V42.6363H177.567V4H185Z" fill="#252525"/>
</g>
</svg>
