<svg width="250" height="62" viewBox="0 0 250 62" fill="none" xmlns="http://www.w3.org/2000/svg">
<g clip-path="url(#clip0_266_451)">
<path d="M106.233 43.6293V42.9813C106.233 40.0007 104.687 37.7113 102.41 36.5881C104.687 35.465 106.018 33.046 106.018 30.2381V29.4606C106.018 22.5922 100.563 20.4323 92.444 20.4323C89.6946 20.4323 86.2152 20.6915 84.7543 20.9075C83.0791 21.1667 82.4775 21.7714 82.4775 23.7153V49.9793C82.4775 51.9232 83.1219 52.4845 84.8404 52.7871C86.5157 53.0897 89.8662 53.3057 92.7018 53.3057C100.133 53.3057 106.233 51.232 106.233 43.6293ZM98.9301 30.5837C98.9301 32.4412 97.9425 33.9963 94.5487 33.9963H89.7373V26.5231C90.3389 26.4799 92.3152 26.4799 93.0023 26.4799C97.427 26.4799 98.9301 27.5599 98.9301 29.9357V30.5837ZM99.1023 43.4565C99.1023 45.8756 97.6848 47.2579 93.26 47.2579C92.6585 47.2579 90.425 47.2147 89.7373 47.2147V39.1367H94.5487C97.9853 39.1367 99.1023 40.9079 99.1023 42.9813V43.4565Z" fill="#EF5D53"/>
<path d="M151.201 32.5276V29.0286C151.201 28.5535 150.814 28.1646 150.342 28.1646H144.457V23.5857C144.457 23.1538 144.07 22.7218 143.683 22.7218C143.64 22.7218 143.597 22.7218 143.555 22.7218L138.314 23.6289C137.841 23.7153 137.455 24.0177 137.455 24.4929V46.1779C137.455 51.7938 140.29 53.3057 145.101 53.3057C146.948 53.3057 149.01 53.1325 150.256 52.9165C150.814 52.8304 151.115 52.5278 151.115 52.0526V48.7266C151.115 48.2514 150.771 47.9922 150.213 47.9922H146.991C145.144 47.9922 144.457 47.733 144.457 46.2211V33.3915H150.342C150.814 33.3915 151.201 33.0027 151.201 32.5276Z" fill="#EF5D53"/>
<path d="M181.845 52.0526V21.6418C181.845 21.1667 181.458 20.8211 180.986 20.8211H175.358C174.886 20.8211 174.5 21.1667 174.5 21.6418V33.1323H163.889V21.6418C163.889 21.1667 163.502 20.8211 163.03 20.8211H157.403C156.93 20.8211 156.543 21.1667 156.543 21.6418V52.0526C156.543 52.5278 156.93 52.9165 157.403 52.9165H163.03C163.502 52.9165 163.889 52.5278 163.889 52.0526V39.5687H174.5V52.0526C174.5 52.5278 174.886 52.9165 175.358 52.9165H180.986C181.458 52.9165 181.845 52.5278 181.845 52.0526Z" fill="#EF5D53"/>
<path d="M209.532 41.6854V39.18C209.532 32.6572 205.966 27.8191 198.921 27.8191C192.091 27.8191 188.053 32.2252 188.053 39.18V42.2038C188.053 50.5409 193.637 53.3057 198.835 53.3057C202.572 53.3057 204.892 52.9598 207.641 52.2686C208.372 52.0959 208.543 51.7938 208.543 51.1024V47.8195C208.543 47.3443 208.2 47.1283 207.727 47.1283C207.685 47.1283 207.641 47.1283 207.599 47.1283C205.88 47.3011 202.057 47.5171 199.351 47.5171C195.957 47.5171 194.926 45.2708 194.926 42.8086V42.7222H208.63C209.188 42.7222 209.532 42.3334 209.532 41.6854ZM202.744 38.4024H194.926V38.2297C194.926 35.0763 196.516 33.4348 198.878 33.4348C201.284 33.4348 202.744 35.0331 202.744 38.2297V38.4024Z" fill="#EF5D53"/>
<path d="M222.779 52.9438C223.989 52.9742 224.988 51.9984 224.988 50.7815V49.8603C224.988 49.0571 224.544 48.3202 223.837 47.9473L222.858 47.4315C222.505 47.2451 222.283 46.8766 222.283 46.475V20.6483C222.283 20.1731 221.939 19.7844 221.467 19.7844H216.226C215.754 19.7844 215.324 20.1731 215.324 20.6483V46.9246C215.324 49.2198 216.767 51.2642 218.921 52.0216L221.467 52.9165C221.643 52.9165 222.178 52.9288 222.779 52.9438Z" fill="#EF5D53"/>
<path d="M250 42.247V38.8776C250 31.8797 246.177 27.8191 239.217 27.8191C235.91 27.8191 232.516 28.3374 230.068 28.9422C228.908 29.2014 228.736 29.5038 228.736 30.195V60.4763C228.736 60.9516 229.166 61.3402 229.638 61.3402H234.836C235.309 61.3402 235.695 60.9516 235.695 60.4763V53.0031C236.941 53.1758 238.359 53.3057 239.217 53.3057C246.477 53.3057 250 49.029 250 42.247ZM243.04 42.247C243.04 45.2708 242.267 47.5603 239.217 47.5603C238.186 47.5603 236.726 47.4307 235.695 47.3011V33.8235C236.511 33.6939 237.8 33.6075 239.217 33.6075C242.267 33.6075 243.04 35.8106 243.04 38.8776V42.247Z" fill="#EF5D53"/>
<path fill-rule="evenodd" clip-rule="evenodd" d="M121.353 53.9969C127.878 53.9969 133.167 48.1946 133.167 41.0375C133.167 33.8803 127.878 28.0782 121.353 28.0782C114.829 28.0782 109.541 33.8803 109.541 41.0375C109.541 48.1946 114.829 53.9969 121.353 53.9969ZM121.353 47.5171C124.319 47.5171 126.723 44.616 126.723 41.0375C126.723 37.4589 124.319 34.5579 121.353 34.5579C118.388 34.5579 115.984 37.4589 115.984 41.0375C115.984 44.616 118.388 47.5171 121.353 47.5171Z" fill="#EF5D53"/>
<path d="M63.1344 26.5996C61.2014 40.8925 47.1618 52.1093 29.8164 52.8753C33.5736 54.9474 38.0936 56.1567 42.9569 56.1567C47.6795 56.1567 52.0787 55.0165 55.7694 53.0526L65.5091 58.8562L61.738 48.5133C64.7777 45.2421 66.5834 41.1534 66.5834 36.7178C66.5834 33.0113 65.3225 29.547 63.1344 26.5996Z" fill="#EF5D53"/>
<path d="M9.66536 59.9361L16.7228 35.0978C19.7125 36.7488 23.4746 37.7977 27.9221 37.7977C40.1982 37.7977 47.2528 29.8065 47.2528 23.2186C47.2528 16.6306 40.1982 8.63948 27.9221 8.63948C15.6459 8.63948 8.59139 16.6306 8.59139 23.2186C8.59139 24.5635 8.88541 25.9668 9.45778 27.3487C9.6982 27.9292 9.46119 28.6158 8.88717 28.8651L3.88401 31.0384C2.82868 31.4968 1.58896 31.0418 1.19374 29.9562C0.4174 27.8238 0 25.5617 0 23.2186C0 10.3953 12.5011 0 27.9221 0C43.343 0 55.8443 10.3953 55.8443 23.2186C55.8443 36.0418 43.343 46.4371 27.9221 46.4371C25.7726 46.4371 23.6798 46.2352 21.6697 45.8528L9.66536 59.9361Z" fill="#EF5D53"/>
</g>
<defs>
<clipPath id="clip0_266_451">
<rect width="250" height="61.3402" fill="white"/>
</clipPath>
</defs>
</svg>
