<svg width="250" height="82" viewBox="0 0 250 82" fill="none" xmlns="http://www.w3.org/2000/svg">
<path d="M108.196 6.14754C108.196 2.75236 110.949 0 114.344 0H243.032C246.428 0 249.18 2.75236 249.18 6.14754V58.3799C249.18 61.775 246.428 64.5275 243.032 64.5275H126.776C125.044 64.5275 123.393 65.2576 122.228 66.5387L111.762 78.0471C110.501 79.4326 108.196 78.5412 108.196 76.6684V6.14754Z" fill="#7255FF"/>
<path d="M18.5164 48.6879C16.7623 49.0158 15.041 49.1552 13.3525 49.106C11.6803 49.0732 10.1803 48.7699 8.85246 48.1961C7.52459 47.606 6.51639 46.6797 5.82787 45.4175C5.22131 44.2699 4.90164 43.0978 4.86885 41.9011C4.83607 40.7043 4.81967 39.3519 4.81967 37.8437V14.7534H10.7213V37.4994C10.7213 38.565 10.7295 39.4994 10.7459 40.3027C10.7787 41.106 10.9508 41.7617 11.2623 42.2699C11.8525 43.2535 12.7951 43.8027 14.0902 43.9175C15.3852 44.0322 16.8607 43.9666 18.5164 43.7207V48.6879ZM0 26.7781V22.1306H18.5164V26.7781H0Z" fill="#252525"/>
<path d="M34.9556 49.4263C32.267 49.4263 29.9064 48.8444 27.8736 47.6804C25.8408 46.5165 24.2506 44.9018 23.1031 42.8362C21.9719 40.7706 21.4064 38.3936 21.4064 35.705C21.4064 32.8034 21.9637 30.287 23.0785 28.1558C24.1933 26.0083 25.7424 24.3444 27.726 23.164C29.7097 21.9837 32.0047 21.3936 34.6113 21.3936C37.3654 21.3936 39.7015 22.0411 41.6195 23.3362C43.5539 24.6149 44.9883 26.4263 45.9228 28.7706C46.8572 31.1149 47.2097 33.8772 46.9801 37.0575H41.1031V34.8936C41.0867 32.0083 40.5785 29.9018 39.5785 28.5739C38.5785 27.246 37.0047 26.5821 34.8572 26.5821C32.431 26.5821 30.6277 27.3362 29.4474 28.8444C28.267 30.3362 27.6769 32.5247 27.6769 35.41C27.6769 38.0985 28.267 40.1804 29.4474 41.6558C30.6277 43.1313 32.349 43.869 34.6113 43.869C36.0703 43.869 37.3244 43.5493 38.3736 42.91C39.4392 42.2542 40.2588 41.3116 40.8326 40.0821L46.6851 41.8526C45.6687 44.246 44.0949 46.1067 41.9637 47.4345C39.849 48.7624 37.5129 49.4263 34.9556 49.4263ZM25.808 37.0575V32.5821H44.0785V37.0575H25.808Z" fill="#252525"/>
<path d="M48.5557 48.6882L58.2688 35.262L48.7524 22.1309H55.736L61.7114 30.6145L67.5885 22.1309H74.5721L65.0557 35.262L74.818 48.6882H67.8344L61.7114 39.9095L55.5393 48.6882H48.5557Z" fill="#252525"/>
<path d="M94.3045 48.6879C92.5504 49.0158 90.8291 49.1552 89.1405 49.106C87.4684 49.0732 85.9684 48.7699 84.6405 48.1961C83.3127 47.606 82.3045 46.6797 81.616 45.4175C81.0094 44.2699 80.6897 43.0978 80.6569 41.9011C80.6242 40.7043 80.6078 39.3519 80.6078 37.8437V14.7534H86.5094V37.4994C86.5094 38.565 86.5176 39.4994 86.534 40.3027C86.5668 41.106 86.7389 41.7617 87.0504 42.2699C87.6405 43.2535 88.5832 43.8027 89.8782 43.9175C91.1733 44.0322 92.6487 43.9666 94.3045 43.7207V48.6879ZM75.7881 26.7781V22.1306H94.3045V26.7781H75.7881Z" fill="#252525"/>
<path d="M137.401 49.2623C134.811 49.2623 132.639 48.6475 130.885 47.418C129.131 46.1885 127.811 44.5164 126.926 42.4016C126.041 40.2705 125.598 37.8852 125.598 35.2459C125.598 32.5738 126.041 30.1803 126.926 28.0656C127.811 25.9508 129.106 24.2869 130.811 23.0738C132.532 21.8443 134.655 21.2295 137.18 21.2295C139.688 21.2295 141.86 21.8443 143.696 23.0738C145.549 24.2869 146.983 25.9508 148 28.0656C149.016 30.1639 149.524 32.5574 149.524 35.2459C149.524 37.9016 149.024 40.2869 148.024 42.4016C147.024 44.5164 145.614 46.1885 143.795 47.418C141.975 48.6475 139.844 49.2623 137.401 49.2623ZM124.59 48.5246V13.1147H130.565V29.8852H129.827V48.5246H124.59ZM136.491 43.9508C138.032 43.9508 139.303 43.5656 140.303 42.7951C141.303 42.0246 142.041 40.9836 142.516 39.6721C143.008 38.3443 143.254 36.8688 143.254 35.2459C143.254 33.6393 143.008 32.1803 142.516 30.8688C142.024 29.541 141.262 28.4918 140.229 27.7213C139.196 26.9344 137.885 26.541 136.295 26.541C134.786 26.541 133.557 26.9098 132.606 27.6475C131.655 28.3688 130.95 29.3852 130.491 30.6967C130.049 31.9918 129.827 33.5082 129.827 35.2459C129.827 36.9672 130.049 38.4836 130.491 39.7951C130.95 41.1066 131.663 42.1311 132.631 42.8688C133.614 43.5902 134.901 43.9508 136.491 43.9508Z" fill="white"/>
<path d="M162.372 49.2618C160.454 49.2618 158.831 48.9011 157.503 48.1798C156.176 47.4421 155.167 46.4667 154.479 45.2536C153.807 44.0405 153.471 42.7044 153.471 41.2454C153.471 39.9667 153.684 38.8192 154.11 37.8028C154.536 36.77 155.192 35.8847 156.077 35.147C156.963 34.3929 158.11 33.7782 159.52 33.3028C160.585 32.9585 161.831 32.647 163.258 32.3683C164.7 32.0897 166.258 31.8356 167.93 31.6061C169.618 31.3602 171.381 31.0979 173.217 30.8192L171.102 32.0241C171.118 30.188 170.708 28.8356 169.872 27.9667C169.036 27.0979 167.626 26.6634 165.643 26.6634C164.446 26.6634 163.29 26.9421 162.176 27.4995C161.061 28.0569 160.282 29.0159 159.84 30.3765L154.43 28.6798C155.085 26.4339 156.331 24.6306 158.167 23.27C160.02 21.9093 162.512 21.229 165.643 21.229C168.003 21.229 170.077 21.6142 171.864 22.3847C173.667 23.1552 175.004 24.4175 175.872 26.1716C176.348 27.1061 176.635 28.0651 176.733 29.0487C176.831 30.0159 176.881 31.0733 176.881 32.2208V48.5241H171.692V42.77L172.553 43.7044C171.356 45.6224 169.954 47.0323 168.348 47.9339C166.758 48.8192 164.766 49.2618 162.372 49.2618ZM163.553 44.5405C164.897 44.5405 166.044 44.3028 166.995 43.8274C167.946 43.352 168.7 42.77 169.258 42.0815C169.831 41.3929 170.217 40.7454 170.413 40.1388C170.725 39.3847 170.897 38.5241 170.93 37.5569C170.979 36.5733 171.003 35.7782 171.003 35.1716L172.823 35.7126C171.036 35.9913 169.503 36.2372 168.225 36.4503C166.946 36.6634 165.848 36.8683 164.93 37.0651C164.012 37.2454 163.2 37.4503 162.495 37.6798C161.807 37.9257 161.225 38.2126 160.749 38.5405C160.274 38.8683 159.905 39.2454 159.643 39.6716C159.397 40.0979 159.274 40.5979 159.274 41.1716C159.274 41.8274 159.438 42.4093 159.766 42.9175C160.094 43.4093 160.569 43.8028 161.192 44.0979C161.831 44.3929 162.618 44.5405 163.553 44.5405Z" fill="white"/>
<path d="M194.815 49.2618C192.077 49.2618 189.741 48.6552 187.807 47.4421C185.872 46.2126 184.389 44.5405 183.356 42.4257C182.34 40.311 181.823 37.9175 181.807 35.2454C181.823 32.5241 182.356 30.1142 183.405 28.0159C184.471 25.9011 185.979 24.2454 187.93 23.0487C189.881 21.8356 192.2 21.229 194.889 21.229C197.905 21.229 200.454 21.9913 202.536 23.5159C204.635 25.0241 206.003 27.0897 206.642 29.7126L200.741 31.311C200.282 29.8847 199.52 28.7782 198.454 27.9913C197.389 27.188 196.176 26.7864 194.815 26.7864C193.274 26.7864 192.003 27.1552 191.003 27.8929C190.003 28.6143 189.266 29.6142 188.79 30.8929C188.315 32.1716 188.077 33.6224 188.077 35.2454C188.077 37.77 188.643 39.811 189.774 41.3684C190.905 42.9257 192.585 43.7044 194.815 43.7044C196.389 43.7044 197.626 43.3438 198.528 42.6224C199.446 41.9011 200.135 40.8602 200.594 39.4995L206.642 40.852C205.823 43.5569 204.389 45.6388 202.34 47.0979C200.29 48.5405 197.782 49.2618 194.815 49.2618Z" fill="white"/>
<path d="M211.52 48.5246L211.569 13.1147H217.569V34.7541L227.282 21.9672H234.683L224.38 35.2459L235.569 48.5246H227.724L217.569 35.7377V48.5246H211.52Z" fill="white"/>
</svg>
