<svg width="48" height="48" viewBox="0 0 48 48" fill="none" xmlns="http://www.w3.org/2000/svg">
<path d="M29.6122 19.166V33.084C29.6122 34.5724 29.021 35.9998 27.9685 37.0523C26.9161 38.1048 25.4886 38.696 24.0002 38.696C22.5118 38.696 21.0844 38.1048 20.0319 37.0523C18.9795 35.9998 18.3882 34.5724 18.3882 33.084V19.166H10.5322V33.532C10.5322 37.104 11.9512 40.5296 14.4769 43.0553C17.0027 45.5811 20.4283 47 24.0002 47C27.5722 47 30.9978 45.5811 33.5235 43.0553C36.0493 40.5296 37.4682 37.104 37.4682 33.532V19.166H29.6122Z" stroke="white" stroke-width="2" stroke-linecap="round" stroke-linejoin="round"/>
<path d="M37.4683 25.7881H29.6123" stroke="white" stroke-width="2" stroke-linecap="round" stroke-linejoin="round"/>
<path d="M18.3882 25.7881H10.5322" stroke="white" stroke-width="2" stroke-linecap="round" stroke-linejoin="round"/>
<path d="M9.16797 4.548C9.16797 5.48899 9.54177 6.39144 10.2072 7.05681C10.8725 7.72219 11.775 8.096 12.716 8.096C13.657 8.096 14.5594 7.72219 15.2248 7.05681C15.8902 6.39144 16.264 5.48899 16.264 4.548C16.264 3.60701 15.8902 2.70456 15.2248 2.03919C14.5594 1.37381 13.657 1 12.716 1C11.775 1 10.8725 1.37381 10.2072 2.03919C9.54177 2.70456 9.16797 3.60701 9.16797 4.548Z" stroke="white" stroke-width="2" stroke-linecap="round" stroke-linejoin="round"/>
<path d="M20.4521 4.548C20.4521 5.01393 20.5439 5.4753 20.7222 5.90576C20.9005 6.33622 21.1619 6.72735 21.4913 7.05682C21.8208 7.38628 22.2119 7.64762 22.6424 7.82592C23.0729 8.00423 23.5342 8.096 24.0001 8.096C24.4661 8.096 24.9274 8.00423 25.3579 7.82592C25.7884 7.64762 26.1795 7.38628 26.509 7.05682C26.8384 6.72735 27.0998 6.33622 27.2781 5.90576C27.4564 5.4753 27.5481 5.01393 27.5481 4.548C27.5481 4.08207 27.4564 3.6207 27.2781 3.19024C27.0998 2.75978 26.8384 2.36865 26.509 2.03919C26.1795 1.70972 25.7884 1.44838 25.3579 1.27008C24.9274 1.09177 24.4661 1 24.0001 1C23.5342 1 23.0729 1.09177 22.6424 1.27008C22.2119 1.44838 21.8208 1.70972 21.4913 2.03919C21.1619 2.36865 20.9005 2.75978 20.7222 3.19024C20.5439 3.6207 20.4521 4.08207 20.4521 4.548Z" stroke="white" stroke-width="2" stroke-linecap="round" stroke-linejoin="round"/>
<path d="M30.1455 15.2C29.9476 13.7102 29.2152 12.343 28.0847 11.3527C26.9542 10.3624 25.5024 9.81653 23.9995 9.81653C22.4966 9.81653 21.0449 10.3624 19.9143 11.3527C18.7838 12.343 18.0514 13.7102 17.8535 15.2" stroke="white" stroke-width="2" stroke-linecap="round" stroke-linejoin="round"/>
<path d="M15.7423 10.654C14.8626 10.1608 13.8759 9.88959 12.8678 9.86394C11.8596 9.8383 10.8604 10.059 9.95678 10.5068C9.05318 10.9547 8.27247 11.6162 7.68235 12.434C7.09223 13.2519 6.71052 14.2013 6.57031 15.2" stroke="white" stroke-width="2" stroke-linecap="round" stroke-linejoin="round"/>
<path d="M32.2578 10.654C33.1375 10.1608 34.1242 9.88959 35.1324 9.86394C36.1405 9.8383 37.1397 10.059 38.0433 10.5068C38.9469 10.9547 39.7277 11.6162 40.3178 12.434C40.9079 13.2519 41.2896 14.2013 41.4298 15.2" stroke="white" stroke-width="2" stroke-linecap="round" stroke-linejoin="round"/>
<path d="M31.7363 4.548C31.7363 5.48899 32.1101 6.39144 32.7755 7.05681C33.4409 7.72219 34.3433 8.096 35.2843 8.096C36.2253 8.096 37.1278 7.72219 37.7931 7.05681C38.4585 6.39144 38.8323 5.48899 38.8323 4.548C38.8323 3.60701 38.4585 2.70456 37.7931 2.03919C37.1278 1.37381 36.2253 1 35.2843 1C34.3433 1 33.4409 1.37381 32.7755 2.03919C32.1101 2.70456 31.7363 3.60701 31.7363 4.548Z" stroke="white" stroke-width="2" stroke-linecap="round" stroke-linejoin="round"/>
</svg>
