<svg width="48" height="48" viewBox="0 0 48 48" fill="none" xmlns="http://www.w3.org/2000/svg">
<g clip-path="url(#clip0_275_1554)">
<path d="M1.00781 47H47.0078" stroke="white" stroke-width="2" stroke-linecap="round" stroke-linejoin="round"/>
<path d="M9 38C9 37.7348 8.89464 37.4804 8.70711 37.2929C8.51957 37.1054 8.26522 37 8 37H4C3.73478 37 3.48043 37.1054 3.29289 37.2929C3.10536 37.4804 3 37.7348 3 38V47H9V38Z" stroke="white" stroke-width="2" stroke-linecap="round" stroke-linejoin="round"/>
<path d="M21 28C21 27.7348 20.8946 27.4804 20.7071 27.2929C20.5196 27.1054 20.2652 27 20 27H16C15.7348 27 15.4804 27.1054 15.2929 27.2929C15.1054 27.4804 15 27.7348 15 28V47H21V28Z" stroke="white" stroke-width="2" stroke-linecap="round" stroke-linejoin="round"/>
<path d="M33 32C33 31.7348 32.8946 31.4804 32.7071 31.2929C32.5196 31.1054 32.2652 31 32 31H28C27.7348 31 27.4804 31.1054 27.2929 31.2929C27.1054 31.4804 27 31.7348 27 32V47H33V32Z" stroke="white" stroke-width="2" stroke-linecap="round" stroke-linejoin="round"/>
<path d="M45 18C45 17.7348 44.8946 17.4804 44.7071 17.2929C44.5196 17.1054 44.2652 17 44 17H40C39.7348 17 39.4804 17.1054 39.2929 17.2929C39.1054 17.4804 39 17.7348 39 18V47H45V18Z" stroke="white" stroke-width="2" stroke-linecap="round" stroke-linejoin="round"/>
<path d="M3.00781 23C3.00781 23.394 3.08541 23.7841 3.23617 24.1481C3.38694 24.512 3.60792 24.8427 3.88649 25.1213C4.16507 25.3999 4.49579 25.6209 4.85976 25.7716C5.22374 25.9224 5.61385 26 6.00781 26C6.40178 26 6.79189 25.9224 7.15586 25.7716C7.51984 25.6209 7.85056 25.3999 8.12913 25.1213C8.40771 24.8427 8.62869 24.512 8.77945 24.1481C8.93022 23.7841 9.00781 23.394 9.00781 23C9.00781 22.2044 8.69174 21.4413 8.12913 20.8787C7.56652 20.3161 6.80346 20 6.00781 20C5.21216 20 4.4491 20.3161 3.88649 20.8787C3.32388 21.4413 3.00781 22.2044 3.00781 23Z" stroke="white" stroke-width="2" stroke-linecap="round" stroke-linejoin="round"/>
<path d="M15.0078 13C15.0078 13.7956 15.3239 14.5587 15.8865 15.1213C16.4491 15.6839 17.2122 16 18.0078 16C18.8035 16 19.5665 15.6839 20.1291 15.1213C20.6917 14.5587 21.0078 13.7956 21.0078 13C21.0078 12.2044 20.6917 11.4413 20.1291 10.8787C19.5665 10.3161 18.8035 10 18.0078 10C17.2122 10 16.4491 10.3161 15.8865 10.8787C15.3239 11.4413 15.0078 12.2044 15.0078 13Z" stroke="white" stroke-width="2" stroke-linecap="round" stroke-linejoin="round"/>
<path d="M27.0078 17C27.0078 17.394 27.0854 17.7841 27.2362 18.1481C27.3869 18.512 27.6079 18.8427 27.8865 19.1213C28.1651 19.3999 28.4958 19.6209 28.8598 19.7716C29.2237 19.9224 29.6138 20 30.0078 20C30.4018 20 30.7919 19.9224 31.1559 19.7716C31.5198 19.6209 31.8506 19.3999 32.1291 19.1213C32.4077 18.8427 32.6287 18.512 32.7795 18.1481C32.9302 17.7841 33.0078 17.394 33.0078 17C33.0078 16.2044 32.6917 15.4413 32.1291 14.8787C31.5665 14.3161 30.8035 14 30.0078 14C29.2122 14 28.4491 14.3161 27.8865 14.8787C27.3239 15.4413 27.0078 16.2044 27.0078 17Z" stroke="white" stroke-width="2" stroke-linecap="round" stroke-linejoin="round"/>
<path d="M39.0078 4C39.0078 4.79565 39.3239 5.55871 39.8865 6.12132C40.4491 6.68393 41.2122 7 42.0078 7C42.8035 7 43.5665 6.68393 44.1291 6.12132C44.6917 5.55871 45.0078 4.79565 45.0078 4C45.0078 3.20435 44.6917 2.44129 44.1291 1.87868C43.5665 1.31607 42.8035 1 42.0078 1C41.2122 1 40.4491 1.31607 39.8865 1.87868C39.3239 2.44129 39.0078 3.20435 39.0078 4Z" stroke="white" stroke-width="2" stroke-linecap="round" stroke-linejoin="round"/>
<path d="M8.53027 20.9L15.7043 14.92" stroke="white" stroke-width="2" stroke-linecap="round" stroke-linejoin="round"/>
<path d="M20.8535 13.948L27.1615 16.05" stroke="white" stroke-width="2" stroke-linecap="round" stroke-linejoin="round"/>
<path d="M39.6078 5.80005L32.0898 14.57" stroke="white" stroke-width="2" stroke-linecap="round" stroke-linejoin="round"/>
</g>
<defs>
<clipPath id="clip0_275_1554">
<rect width="48" height="48" fill="white"/>
</clipPath>
</defs>
</svg>
