<svg width="48" height="48" viewBox="0 0 48 48" fill="none" xmlns="http://www.w3.org/2000/svg">
<path d="M7 17C7 18.8565 7.7375 20.637 9.05025 21.9497C10.363 23.2625 12.1435 24 14 24C15.8565 24 17.637 23.2625 18.9497 21.9497C20.2625 20.637 21 18.8565 21 17C21 15.1435 20.2625 13.363 18.9497 12.0503C17.637 10.7375 15.8565 10 14 10C12.1435 10 10.363 10.7375 9.05025 12.0503C7.7375 13.363 7 15.1435 7 17Z" stroke="white" stroke-width="2" stroke-linecap="round" stroke-linejoin="round"/>
<path d="M14 10V17H21" stroke="white" stroke-width="2" stroke-linecap="round" stroke-linejoin="round"/>
<path d="M18 45C19.8116 42.7125 20.8608 39.9147 21 37" stroke="white" stroke-width="2" stroke-linecap="round" stroke-linejoin="round"/>
<path d="M30 45C28.1884 42.7125 27.1392 39.9147 27 37" stroke="white" stroke-width="2" stroke-linecap="round" stroke-linejoin="round"/>
<path d="M14.998 45H32.998" stroke="white" stroke-width="2" stroke-linecap="round" stroke-linejoin="round"/>
<path d="M1 31H47" stroke="white" stroke-width="2" stroke-linecap="round" stroke-linejoin="round"/>
<path d="M3 3H45C45 3 47 3 47 5V35C47 35 47 37 45 37H3C3 37 1 37 1 35V5C1 5 1 3 3 3Z" stroke="white" stroke-width="2" stroke-linecap="round" stroke-linejoin="round"/>
<path d="M27 14L30 10L36 15L41 9" stroke="white" stroke-width="2" stroke-linecap="round" stroke-linejoin="round"/>
<path d="M39 25V22" stroke="white" stroke-width="2" stroke-linecap="round" stroke-linejoin="round"/>
<path d="M35 25V21" stroke="white" stroke-width="2" stroke-linecap="round" stroke-linejoin="round"/>
<path d="M31 25V19" stroke="white" stroke-width="2" stroke-linecap="round" stroke-linejoin="round"/>
<path d="M27 25V22" stroke="white" stroke-width="2" stroke-linecap="round" stroke-linejoin="round"/>
</svg>
